<?xml version="1.0" encoding="utf-8"?>
<!-- Generator: Adobe Illustrator 24.0.1, SVG Export Plug-In . SVG Version: 6.00 Build 0)  -->
<svg version="1.1" id="画布" xmlns="http://www.w3.org/2000/svg" xmlns:xlink="http://www.w3.org/1999/xlink" x="0px" y="0px"
	 viewBox="0 0 2000 2000" style="enable-background:new 0 0 2000 2000;" xml:space="preserve">
<style type="text/css">
	.st0{fill:#DDDDDD;}
	.st1{fill:#FFFFFF;}
	.st2{opacity:0.45;fill:#DDDDDD;}
	.st3{opacity:0.64;fill:#DDDDDD;}
	.st4{opacity:0.66;fill:#DDDDDD;}
	.st5{opacity:0.59;fill:#DDDDDD;}
	.st6{fill:#FFC5D0;}
	.st7{opacity:0.71;}
	.st8{opacity:0.65;}
	.st9{opacity:0.24;fill:#DDDDDD;}
	.st10{fill:#FFFFFF;stroke:#000000;stroke-miterlimit:10;}
	.st11{opacity:0.84;fill:#2C49BF;}
	.st12{fill:#2C49BF;}
	.st13{opacity:0.61;fill:#2C49BF;}
	.st14{fill:#CED7E4;}
	.st15{opacity:0.79;}
	.st16{opacity:0.31;fill:#2C49BF;}
	.st17{opacity:0.77;}
	.st18{opacity:0.66;fill:#2C49BF;}
	.st19{fill:#EDBEA6;}
	.st20{opacity:0.81;fill:#2C49BF;}
	.st21{opacity:0.61;}
	.st22{fill:#C46C4D;}
	.st23{fill:#0D0B0B;}
	.st24{opacity:0.58;fill:#C46C4D;}
	.st25{fill:#2C49BF;stroke:#FFFFFF;stroke-miterlimit:10;}
	.st26{stroke:#FFFFFF;stroke-miterlimit:10;}
	.st27{opacity:0.72;fill:#2C49BF;}
	.st28{opacity:0.29;fill:#2C49BF;}
	.st29{opacity:0.53;fill:#2C49BF;}
	.st30{opacity:0.68;}
	.st31{opacity:0.58;}
	.st32{opacity:0.39;fill:#2C49BF;}
</style>
<g id="背景-详细">
	<g>
		<path id="XMLID_229_" class="st0" d="M1251.86,519.91c0,0-372.83,0-404.05,0c-18.07,0-26.87,7.38-31.11,13.6
			c-4.23-6.22-13.03-13.6-31.11-13.6c-31.22,0-404.05,0-404.05,0s-67.95-5.51-67.95,77.14s0,82.65,0,82.65v218.55h416.9l86.21-96.79
			l86.21,96.79h416.9V679.69c0,0,0,0,0-82.65S1251.86,519.91,1251.86,519.91z"/>
		<path id="XMLID_228_" class="st1" d="M232.79,1050.68h124.89l45.91-123.05V723.77c0,0-23.88-62.44-67.95-73.46
			s-56.93-3.67-88.16,11.02s-104.68,51.42-106.52,88.16c-1.84,36.73,5.51,62.44,71.63,73.46v185.49
			C212.59,1008.44,212.59,1050.68,232.79,1050.68z"/>
		<g id="XMLID_225_">
			<path id="XMLID_227_" class="st0" d="M239.52,1039.66v58.77h22.04l42.85-57.55C304.42,1040.88,239.52,1038.44,239.52,1039.66z"/>
			<path id="XMLID_226_" class="st0" d="M1395.41,1039.66v58.77h-22.04l-42.85-57.55
				C1330.52,1040.88,1395.41,1038.44,1395.41,1039.66z"/>
		</g>
		<path id="XMLID_224_" class="st0" d="M264.01,714.59c-47.17-5.55-92.24-15.26-116.21,15.94c-4.02,6.24-6.52,12.6-6.84,18.96
			c-1.84,36.73,5.51,62.44,71.63,73.46v185.49c0,0,0,42.24,20.2,42.24h93.67V806.41C326.45,806.41,326.45,721.93,264.01,714.59z"/>
		<path id="XMLID_223_" class="st1" d="M1400.63,1050.68h-124.89l-45.91-123.05V723.77c0,0,23.88-62.44,67.95-73.46
			s56.93-3.67,88.16,11.02s104.68,51.42,106.52,88.16s-5.51,62.44-71.63,73.46v185.49
			C1420.83,1008.44,1420.83,1050.68,1400.63,1050.68z"/>
		<path id="XMLID_28_" class="st2" d="M232.79,1046.68h124.89l45.91-123.05V719.77c0,0-23.88-62.44-67.95-73.46
			s-56.93-3.67-88.16,11.02s-104.68,51.42-106.52,88.16c-1.84,36.73,5.51,62.44,71.63,73.46v185.49
			C212.59,1004.44,212.59,1046.68,232.79,1046.68z"/>
		<path id="XMLID_27_" class="st3" d="M1394.63,1050.68h-124.89l-45.91-123.05V723.77c0,0,23.88-62.44,67.95-73.46
			s56.93-3.67,88.16,11.02s104.68,51.42,106.52,88.16s-5.51,62.44-71.63,73.46v185.49
			C1414.83,1008.44,1414.83,1050.68,1394.63,1050.68z"/>
		<path id="XMLID_222_" class="st0" d="M1369.4,714.59c47.17-5.55,92.24-15.26,116.21,15.94c4.02,6.24,6.52,12.6,6.84,18.96
			c1.84,36.73-5.51,62.44-71.63,73.46v185.49c0,0,0,42.24-20.2,42.24h-93.67V806.41C1306.96,806.41,1306.96,721.93,1369.4,714.59z"
			/>
		<path id="XMLID_221_" class="st0" d="M1307.19,1040.27c0,5.73-4.69,10.41-10.41,10.41H344.21c-5.73,0-10.41-4.69-10.41-10.41
			V923.35c0-5.73,4.69-10.41,10.41-10.41h952.56c5.73,0,10.41,4.69,10.41,10.41V1040.27z"/>
		<path id="XMLID_220_" class="st1" d="M1296.78,912.94H344.21c-5.73,0-10.41,4.69-10.41,10.41v28.76c0,5.73,4.69,10.41,10.41,10.41
			h952.56c5.73,0,10.41-4.69,10.41-10.41v-28.76C1307.19,917.62,1302.5,912.94,1296.78,912.94z"/>
		<path id="XMLID_219_" class="st0" d="M1256.23,815.6c-23.52-23.88-50.65-47.75-103.12-56.93c-52.46-9.18-236.99,1.84-267.74,3.67
			c-25.76,1.54-57.85,10.81-68.66,25.65c-10.81-14.84-42.9-24.11-68.66-25.65c-30.75-1.84-215.28-12.86-267.74-3.67
			c-52.46,9.18-79.6,33.06-103.12,56.93c-23.52,23.88-37.99,47.75-37.99,47.75s0,27.55,0,56.93s92.26,29.39,92.26,29.39
			s284.02,0,329.25,0c32.75,0,49.32-7.69,56-11.94c6.68,4.25,23.25,11.94,56,11.94c45.23,0,329.25,0,329.25,0s92.26,0,92.26-29.39
			s0-56.93,0-56.93S1279.75,839.47,1256.23,815.6z"/>
		<path id="XMLID_218_" class="st1" d="M1283.92,864.61c0,0-178.92-6.79-464.7-6.52c0.88-29.49,1.49-60.39,1.74-74.7
			c-1.63,1.47-3.09,3-4.26,4.6c-0.87-1.2-1.93-2.35-3.07-3.47c-0.2,14.09-0.59,44.47-0.66,73.58
			c-133.15,0.17-289.13,1.88-460.81,6.51h460.8c-0.03,32.91,0.39,62.44,2.02,62.44c1.62,0,3-29.47,4.04-62.44H1283.92z"/>
		<path id="XMLID_217_" class="st1" d="M818.66,768.41c5.27,0,2.37-175.97,1.47-224.98c-1.37,1.36-2.51,2.74-3.42,4.08
			c-0.81-1.2-1.8-2.43-2.98-3.65C813.57,587.27,813.27,768.41,818.66,768.41z"/>
		<g>
			<path id="XMLID_215_" class="st1" d="M513.73,582.07c0,0-31.83,154.27-66.12,178.76c-17.14,9.79,71.01,7.35,107.75,17.14
				c36.73,9.8,78.36,22.04,90.6,39.18c12.24,17.14,4.9-31.83,9.79-44.08c4.9-12.24,26.94-68.57,39.18-102.85
				c12.24-34.28,34.28-53.87-4.9-53.87c-39.18,0-88.16-9.79-122.44-19.59C533.32,586.96,518.63,569.82,513.73,582.07z"/>
			<path id="XMLID_26_" class="st4" d="M514.73,582.07c0,0-31.83,154.27-66.12,178.76c-17.14,9.79,71.01,7.35,107.75,17.14
				c36.73,9.8,78.36,22.04,90.6,39.18c12.24,17.14,4.9-31.83,9.79-44.08c4.9-12.24,26.94-68.57,39.18-102.85
				c12.24-34.28,34.28-53.87-4.9-53.87c-39.18,0-88.16-9.79-122.44-19.59C534.32,586.96,519.63,569.82,514.73,582.07z"/>
			<path id="XMLID_214_" class="st1" d="M486.73,734.73c0,0,54.65,7.88,87.83,19.64s59.3,31.27,59.3,31.27s-27.68-35.28-61.98-44.37
				C537.58,732.19,503.56,731.41,486.73,734.73z"/>
		</g>
		<g>
			<path id="XMLID_31_" class="st1" d="M1098.97,578.07c0,0,31.83,154.27,66.12,178.76c17.14,9.79-71.01,7.35-107.75,17.14
				c-36.73,9.8-78.36,22.04-90.6,39.18c-12.24,17.14-4.9-31.83-9.79-44.08c-4.9-12.24-26.94-68.57-39.18-102.85
				c-12.24-34.28-34.28-53.87,4.9-53.87c39.18,0,88.16-9.79,122.44-19.59C1079.38,582.96,1094.07,565.82,1098.97,578.07z"/>
			<path id="XMLID_30_" class="st4" d="M1097.97,578.07c0,0,31.83,154.27,66.12,178.76c17.14,9.79-71.01,7.35-107.75,17.14
				c-36.73,9.8-78.36,22.04-90.6,39.18c-12.24,17.14-4.9-31.83-9.79-44.08c-4.9-12.24-26.94-68.57-39.18-102.85
				c-12.24-34.28-34.28-53.87,4.9-53.87c39.18,0,88.16-9.79,122.44-19.59C1078.38,582.96,1093.07,565.82,1097.97,578.07z"/>
			<path id="XMLID_29_" class="st1" d="M1125.97,730.73c0,0-54.65,7.88-87.83,19.64c-33.17,11.76-59.3,31.27-59.3,31.27
				s27.68-35.28,61.98-44.37C1075.12,728.19,1109.14,727.41,1125.97,730.73z"/>
		</g>
	</g>
	<g>
		<rect x="1048.78" y="139.61" class="st5" width="190.69" height="193.63"/>
		<path class="st0" d="M1246,340.58h-203.75V133.9H1246V340.58z M1055.31,327.53h177.64V146.95h-177.64V327.53z"/>
		<rect x="1086.69" y="182.69" class="st1" width="114.77" height="109.1"/>
		<path class="st0" d="M1110.92,228.47c-0.48-1.75-3.2-1.01-2.72,0.75c3.22,11.82,5.34,23.74,6.4,35.8
			c-4.35-6.53-11.8-10.67-19.95-10.57c-0.99,0.01-1.52,0.89-1.36,1.79c1.54,8.81,13.55,14.22,21.34,15.55
			c0.03,0.01,0.06-0.01,0.09,0c0.09,0.28,0.22,0.54,0.3,0.82c0.03,0.1,0.09,0.17,0.13,0.25c0.25,5.1,0.32,10.23,0.18,15.39
			c-0.05,1.82,2.78,1.82,2.83,0C1118.66,267.9,1116.26,248.11,1110.92,228.47z M1096.58,257.42c7.25,0.58,13.59,4.86,16.85,11.24
			C1107.24,267.2,1099,263.43,1096.58,257.42z"/>
		<path class="st0" d="M1175.84,207.95c-10.77,4.12-19.42,12.12-26.49,21.94c0.37-3.65,0.14-7.38-1.06-10.8
			c-0.87-2.5-4.16-8.63-7.75-7.56c-3.45,1.03-2.63,9.29-2.28,11.65c0.76,5.11,3.14,9.61,6.72,13.28
			c-9.92,16.35-16.21,36.13-20.62,51.86c-0.49,1.75,2.23,2.5,2.72,0.75c3.02-10.76,7.17-24.02,12.92-36.68
			c0.11-0.07,0.23-0.12,0.34-0.23c0.17-0.18,0.36-0.3,0.54-0.47c9.16,3.59,31.1,5.61,31-8.96c-0.01-0.8-0.64-1.36-1.41-1.41
			c-9.72-0.66-19.65-0.1-27.66,5.22c8.08-16,18.96-30.21,33.79-35.87C1178.27,210.03,1177.54,207.3,1175.84,207.95z M1141.56,214.31
			c0.73-0.24,2.76,2.92,3.19,3.68c1.05,1.89,1.56,4.12,1.79,6.25c0.32,3.04,0.04,6.09-0.61,9.06c-1.97-2.32-3.45-4.92-4.31-7.9
			C1141.29,224.33,1139.65,214.93,1141.56,214.31z M1168.91,244.07c-1.3,10-17.83,7.9-25.57,5.49
			C1150.63,244.15,1159.86,243.57,1168.91,244.07z"/>
		<g>
			<path class="st0" d="M1103.46,201.94c-1.33,1.71-1.88,4.08-2.05,6.59c-1.13-1.53-2.61-2.58-5.08-2.14
				c-4.25,0.76-4.51,6.51-3.63,9.81c1.71,6.35,12.18,20.36,19.75,13.8c6.69-5.8,5.67-22.55-0.55-28.32
				C1109.35,199.31,1105.72,199.04,1103.46,201.94z"/>
			<path class="st0" d="M1186.49,199.29c1.02-2.7,1.67-5.53,1.95-8.54c0.09-0.93-0.33-1.53-0.91-1.89c-0.5-0.47-1.19-0.71-2.07-0.38
				c-8.2,3.07-19.31,8.46-19.91,18.61c-0.58,9.88,10.36,10.93,17.39,8.27c5.46-2.07,12.22-8.02,12.21-14.48
				C1195.15,195.7,1190.64,197.17,1186.49,199.29z"/>
		</g>
	</g>
	<g>
		<rect x="379.45" y="154.82" class="st1" width="190.69" height="193.63"/>
		<rect x="379.45" y="154" class="st5" width="190.69" height="193.63"/>
		<path class="st0" d="M576.67,354.97H372.93V148.29h203.75V354.97z M385.98,341.92h177.64V161.34H385.98V341.92z"/>
		<rect x="417.37" y="197.08" class="st1" width="114.77" height="109.1"/>
		<g>
			<g>
				<path class="st6" d="M474.46,248.45c-0.11,0-0.21,0-0.32,0c-0.34-0.01-0.67,0.06-0.96,0.22c-0.31,0.1-0.58,0.27-0.8,0.52
					c-0.24,0.23-0.42,0.49-0.52,0.8c-0.16,0.3-0.23,0.62-0.22,0.96c0.03,0.22,0.06,0.44,0.09,0.66c0.12,0.42,0.33,0.79,0.64,1.1
					c0.17,0.13,0.34,0.26,0.51,0.39c0.39,0.23,0.81,0.34,1.26,0.34c0.11,0,0.21,0,0.32,0c0.34,0.01,0.67-0.06,0.96-0.22
					c0.31-0.1,0.58-0.27,0.8-0.52c0.24-0.23,0.42-0.49,0.52-0.8c0.16-0.3,0.23-0.62,0.22-0.96c-0.03-0.22-0.06-0.44-0.09-0.66
					c-0.12-0.42-0.33-0.79-0.64-1.1c-0.17-0.13-0.34-0.26-0.51-0.39C475.33,248.57,474.91,248.45,474.46,248.45L474.46,248.45z"/>
			</g>
		</g>
		<g class="st7">
			<path class="st0" d="M488.74,241.58c2-6.27,6.11-11.84,11.51-15.59c5.4-3.76,12.06-5.67,18.63-5.37c1.63,5.85-1.8,12-6.22,16.16
				c-4.4,4.14-9.91,7.09-15.79,8.46c-3.46,0.81-7.38,0.99-10.28-1.06"/>
		</g>
		<g class="st7">
			<path class="st0" d="M453.19,261.15c-5.68-0.52-11.49,0.3-16.8,2.39c-1.95,0.77-3.86,1.72-5.38,3.17
				c-2.18,2.08-3.35,4.99-4.45,7.8c12.11,4.6,21.19-1.01,29.84-6.84"/>
		</g>
		<g class="st7">
			<path class="st0" d="M452.65,275.26c-2.86,4.19-5.29,8.76-6.39,13.72s-0.78,10.34,1.6,14.83c2.08-1.72,4.06-3.57,5.91-5.54
				c1.94-2.06,3.76-4.28,4.97-6.84c3.73-7.86,1.1-17.09,1.14-25.79"/>
		</g>
		<path class="st0" d="M506.71,239.03c-3.38-1.8-6.86-2.75-10.36-3.04c-0.45-9.05-4.65-18.51-13.8-21.54
			c-8.67-2.87-19.33,2.28-24.12,9.79c-2.7,4.23-4.26,9.01-4.98,13.93c-1.68,0.17-3.37,0.43-5.1,0.92
			c-8.57,2.39-17.57,8.7-16.65,18.63c0.91,9.87,11.48,12.85,19.9,13.74c0.35,12.47,8.34,24.15,23.09,22.09
			c11.12-1.55,19.03-11.23,21.27-21.93c7.96-0.47,17.49-2.85,21-10.63C520.94,252.16,514.39,243.12,506.71,239.03z"/>
		<g>
			<circle class="st1" cx="467.71" cy="245.81" r="3.21"/>
			<path class="st1" d="M483.48,256.97c0,1.77-1.44,3.21-3.21,3.21c-1.77,0-3.21-1.44-3.21-3.21c0-1.77,1.44-3.21,3.21-3.21
				C482.04,253.76,483.48,255.2,483.48,256.97z"/>
			<circle class="st1" cx="483.89" cy="244.06" r="3.21"/>
			<circle class="st1" cx="467.27" cy="259.7" r="3.21"/>
		</g>
	</g>
	<g>
		<g>
			<g>
				<path class="st1" d="M1673.45,867.6c-0.01-36.53,5.05-88.2,11.31-88.2s11.36,51.66,11.37,88.19c0.01,36.53-5.06,44.1-11.33,44.1
					S1673.46,904.13,1673.45,867.6z"/>
				<path class="st5" d="M1673.45,867.6c-0.01-36.53,5.05-88.2,11.31-88.2s11.36,51.66,11.37,88.19c0.01,36.53-5.06,44.1-11.33,44.1
					S1673.46,904.13,1673.45,867.6z"/>
				<g>
					<path class="st0" d="M1694.38,826.07c0.31,3.88,0.59,7.84,0.82,11.82l-20.84,0.01c0.23-3.98,0.5-7.95,0.81-11.82
						L1694.38,826.07z"/>
					<path class="st0" d="M1673.75,881.47c-0.17-3.54-0.27-7.46-0.29-11.82l22.68-0.01c-0.02,4.36-0.12,8.29-0.29,11.82
						L1673.75,881.47z"/>
					<path class="st0" d="M1695.7,847.86c0.16,4,0.28,7.97,0.36,11.82l-22.54,0.01c0.07-3.86,0.19-7.82,0.35-11.82L1695.7,847.86z"
						/>
					<path class="st0" d="M1687.42,782.5c1.11,2.59,2.15,6.68,3.11,11.82l-11.51,0c0.95-5.14,1.99-9.24,3.1-11.83L1687.42,782.5z"/>
					<path class="st0" d="M1692.1,804.29c0.5,3.7,0.97,7.67,1.39,11.82l-17.42,0.01c0.42-4.16,0.88-8.13,1.38-11.82L1692.1,804.29z"
						/>
				</g>
			</g>
			<g>
				<path class="st1" d="M1664.76,797.38c-18.7,8.44-47.77,13.5-47.77,13.5s23.82-18.81,42.52-27.25
					c18.7-8.44,25.19-3.31,25.19-3.31S1683.46,788.94,1664.76,797.38z"/>
				<path class="st1" d="M1709.9,783.6c18.71,8.42,42.54,27.22,42.54,27.22s-29.07-5.03-47.77-13.46s-19.96-17.05-19.96-17.05
					S1691.2,775.17,1709.9,783.6z"/>
			</g>
			<g>
				<path class="st0" d="M1660.28,787.77c-20.24,0.01-48.87-7.43-48.87-7.43s28.63-7.46,48.87-7.47
					c20.24-0.01,24.44,7.44,24.44,7.44S1680.52,787.76,1660.28,787.77z"/>
				<path class="st0" d="M1709.15,787.75c20.24-0.01,48.87-7.47,48.87-7.47s-28.63-7.44-48.87-7.43
					c-20.24,0.01-24.43,7.46-24.43,7.46S1688.9,787.75,1709.15,787.75z"/>
			</g>
			<g>
				<g>
					<path class="st1" d="M1709.9,777c18.7-8.44,42.52-27.25,42.52-27.25s-29.07,5.06-47.77,13.5
						c-18.7,8.44-19.95,17.07-19.95,17.07S1691.2,785.44,1709.9,777z"/>
				</g>
				<g>
					<path class="st1" d="M1664.75,763.26c-18.71-8.42-47.77-13.46-47.77-13.46s23.84,18.8,42.54,27.22
						c18.71,8.42,25.2,3.29,25.2,3.29S1683.45,771.68,1664.75,763.26z"/>
				</g>
			</g>
			<g>
				<path class="st0" d="M1662.51,766.69c-14.32-15.58-29.73-42.87-29.73-42.87s25.09,16.76,39.41,32.33
					c14.32,15.58,12.45,24.07,12.45,24.07S1676.83,782.26,1662.51,766.69z"/>
				<path class="st0" d="M1706.9,766.67c14.31-15.59,29.71-42.89,29.71-42.89s-25.08,16.78-39.39,32.36
					c-14.31,15.59-12.43,24.08-12.43,24.08S1692.59,782.26,1706.9,766.67z"/>
			</g>
			<g>
				<g>
					<path class="st1" d="M1700.37,758.58c7.74-20.36,12.36-52,12.36-52s-17.27,25.95-25.01,46.31
						c-7.74,20.36-3.02,27.42-3.02,27.42S1692.63,778.94,1700.37,758.58z"/>
				</g>
				<g>
					<path class="st1" d="M1681.67,752.89c-7.75-20.35-25.04-46.29-25.04-46.29s4.64,31.64,12.4,51.99
						c7.75,20.35,15.68,21.72,15.68,21.72S1689.42,773.24,1681.67,752.89z"/>
				</g>
			</g>
			<g class="st8">
				<path class="st0" d="M1664.76,797.38c-18.7,8.44-47.77,13.5-47.77,13.5s23.82-18.81,42.52-27.25
					c18.7-8.44,25.19-3.31,25.19-3.31S1683.46,788.94,1664.76,797.38z"/>
				<path class="st0" d="M1709.9,783.6c18.71,8.42,42.54,27.22,42.54,27.22s-29.07-5.03-47.77-13.46s-19.96-17.05-19.96-17.05
					S1691.2,775.17,1709.9,783.6z"/>
			</g>
			<g class="st8">
				<g>
					<path class="st0" d="M1709.9,777c18.7-8.44,42.52-27.25,42.52-27.25s-29.07,5.06-47.77,13.5
						c-18.7,8.44-19.95,17.07-19.95,17.07S1691.2,785.44,1709.9,777z"/>
				</g>
				<g>
					<path class="st0" d="M1664.75,763.26c-18.71-8.42-47.77-13.46-47.77-13.46s23.84,18.8,42.54,27.22
						c18.71,8.42,25.2,3.29,25.2,3.29S1683.45,771.68,1664.75,763.26z"/>
				</g>
			</g>
			<g class="st8">
				<g>
					<path class="st0" d="M1700.37,758.58c7.74-20.36,12.36-52,12.36-52s-17.27,25.95-25.01,46.31
						c-7.74,20.36-3.02,27.42-3.02,27.42S1692.63,778.94,1700.37,758.58z"/>
				</g>
				<g>
					<path class="st0" d="M1681.67,752.89c-7.75-20.35-25.04-46.29-25.04-46.29s4.64,31.64,12.4,51.99
						c7.75,20.35,15.68,21.72,15.68,21.72S1689.42,773.24,1681.67,752.89z"/>
				</g>
			</g>
			<path class="st0" d="M1677.91,753.71c-0.01-22.03,6.82-53.2,6.82-53.2s6.85,31.16,6.86,53.19c0.01,22.03-6.83,26.6-6.83,26.6
				S1677.92,775.75,1677.91,753.71z"/>
		</g>
		<g>
			<g>
				<path class="st1" d="M1743.37,807.24c-0.03-99.31,11.44-239.77,25.64-239.77c14.2-0.01,25.75,140.44,25.77,239.75
					c0.03,99.31-11.48,119.89-25.68,119.89C1754.91,927.11,1743.39,906.55,1743.37,807.24z"/>
				<path class="st5" d="M1743.37,807.24c-0.03-99.31,11.44-239.77,25.64-239.77c14.2-0.01,25.75,140.44,25.77,239.75
					c0.03,99.31-11.48,119.89-25.68,119.89C1754.91,927.11,1743.39,906.55,1743.37,807.24z"/>
				<g>
					<path class="st0" d="M1790.81,694.33c0.71,10.55,1.33,21.32,1.86,32.14l-47.24,0.02c0.52-10.83,1.14-21.6,1.84-32.15
						L1790.81,694.33z"/>
					<path class="st0" d="M1744.05,844.95c-0.38-9.61-0.61-20.29-0.67-32.14l51.39-0.02c-0.05,11.85-0.27,22.53-0.65,32.15
						L1744.05,844.95z"/>
					<path class="st0" d="M1793.8,753.55c0.37,10.88,0.64,21.65,0.81,32.14l-51.08,0.02c0.16-10.49,0.42-21.27,0.79-32.15
						L1793.8,753.55z"/>
					<path class="st0" d="M1775.03,575.89c2.51,7.03,4.88,18.16,7.04,32.14l-26.09,0.01c2.16-13.99,4.52-25.11,7.02-32.15
						L1775.03,575.89z"/>
					<path class="st0" d="M1785.63,635.11c1.14,10.05,2.19,20.84,3.14,32.14l-39.47,0.02c0.95-11.3,1.99-22.1,3.12-32.15
						L1785.63,635.11z"/>
				</g>
			</g>
			<g>
				<path class="st1" d="M1723.67,616.32c-42.38,22.94-108.25,36.69-108.25,36.69s53.99-51.15,96.37-74.09
					c42.38-22.94,57.1-8.99,57.1-8.99S1766.05,593.38,1723.67,616.32z"/>
				<path class="st1" d="M1825.99,578.86c42.39,22.9,96.42,74,96.42,74s-65.88-13.68-108.27-36.59
					c-42.39-22.9-45.24-46.35-45.24-46.35S1783.6,555.96,1825.99,578.86z"/>
			</g>
			<g>
				<path class="st0" d="M1713.52,590.19c-45.88,0.02-110.77-20.19-110.77-20.19s64.88-20.28,110.75-20.3
					c45.88-0.02,55.39,20.22,55.39,20.22S1759.39,590.17,1713.52,590.19z"/>
				<path class="st0" d="M1824.28,590.14c45.88-0.02,110.75-20.3,110.75-20.3s-64.89-20.22-110.77-20.19
					c-45.88,0.02-55.37,20.27-55.37,20.27S1778.4,590.16,1824.28,590.14z"/>
			</g>
			<g>
				<g>
					<path class="st1" d="M1825.99,560.93c42.38-22.94,96.37-74.09,96.37-74.09s-65.87,13.74-108.25,36.69
						c-42.38,22.94-45.22,46.4-45.22,46.4S1783.61,583.87,1825.99,560.93z"/>
				</g>
				<g>
					<path class="st1" d="M1723.65,523.57c-42.39-22.9-108.27-36.59-108.27-36.59s54.02,51.1,96.42,74
						c42.39,22.9,57.1,8.94,57.1,8.94S1766.04,546.47,1723.65,523.57z"/>
				</g>
			</g>
			<g>
				<path class="st0" d="M1718.57,532.89c-32.45-42.34-67.39-116.54-67.39-116.54s56.86,45.56,89.31,87.9
					c32.45,42.34,28.21,65.43,28.21,65.43S1751.02,575.24,1718.57,532.89z"/>
				<path class="st0" d="M1819.19,532.85c32.43-42.37,67.32-116.61,67.32-116.61s-56.83,45.61-89.26,87.98s-28.18,65.46-28.18,65.46
					S1786.76,575.22,1819.19,532.85z"/>
			</g>
			<g>
				<g>
					<path class="st1" d="M1804.39,510.85c17.54-55.35,28.02-141.37,28.02-141.37s-39.14,70.54-56.68,125.89s-6.85,74.55-6.85,74.55
						S1786.85,566.2,1804.39,510.85z"/>
				</g>
				<g>
					<path class="st1" d="M1762,495.37c-17.57-55.33-56.75-125.83-56.75-125.83s10.53,86.01,28.1,141.34
						c17.57,55.33,35.54,59.04,35.54,59.04S1779.57,550.71,1762,495.37z"/>
				</g>
			</g>
			<g class="st8">
				<path class="st0" d="M1723.67,616.32c-42.38,22.94-108.25,36.69-108.25,36.69s53.99-51.15,96.37-74.09
					c42.38-22.94,57.1-8.99,57.1-8.99S1766.05,593.38,1723.67,616.32z"/>
				<path class="st0" d="M1825.99,578.86c42.39,22.9,96.42,74,96.42,74s-65.88-13.68-108.27-36.59
					c-42.39-22.9-45.24-46.35-45.24-46.35S1783.6,555.96,1825.99,578.86z"/>
			</g>
			<g class="st8">
				<g>
					<path class="st0" d="M1825.99,560.93c42.38-22.94,96.37-74.09,96.37-74.09s-65.87,13.74-108.25,36.69
						c-42.38,22.94-45.22,46.4-45.22,46.4S1783.61,583.87,1825.99,560.93z"/>
				</g>
				<g>
					<path class="st0" d="M1723.65,523.57c-42.39-22.9-108.27-36.59-108.27-36.59s54.02,51.1,96.42,74
						c42.39,22.9,57.1,8.94,57.1,8.94S1766.04,546.47,1723.65,523.57z"/>
				</g>
			</g>
			<g class="st8">
				<g>
					<path class="st0" d="M1804.39,510.85c17.54-55.35,28.02-141.37,28.02-141.37s-39.14,70.54-56.68,125.89s-6.85,74.55-6.85,74.55
						S1786.85,566.2,1804.39,510.85z"/>
				</g>
				<g>
					<path class="st0" d="M1762,495.37c-17.57-55.33-56.75-125.83-56.75-125.83s10.53,86.01,28.1,141.34
						c17.57,55.33,35.54,59.04,35.54,59.04S1779.57,550.71,1762,495.37z"/>
				</g>
			</g>
			<path class="st0" d="M1753.48,497.62c-0.02-59.9,15.47-144.62,15.47-144.62s15.53,84.71,15.55,144.61
				c0.02,59.9-15.49,72.31-15.49,72.31S1753.5,557.52,1753.48,497.62z"/>
		</g>
		<g>
			<path class="st1" d="M1785.2,1074.95l-101.73,0.05c-25.07-30.37-41.62-82.54-41.63-141.81c0-13.92,0.91-27.45,2.63-40.39
				l179.64-0.08c1.72,12.95,2.65,26.47,2.65,40.39C1826.77,992.38,1810.25,1044.56,1785.2,1074.95z"/>
			<path class="st0" d="M1785.2,1074.95l-101.73,0.05c-25.07-30.37-41.62-82.54-41.63-141.81c0-13.92,0.91-27.45,2.63-40.39
				l179.64-0.08c1.72,12.95,2.65,26.47,2.65,40.39C1826.77,992.38,1810.25,1044.56,1785.2,1074.95z"/>
			<path class="st1" d="M1826.75,933.1c0,15.31-1.1,30.14-3.17,44.25l-178.56,0.08c-2.07-14.11-3.19-28.94-3.19-44.25
				c0-4.38,0.1-8.71,0.28-13.01l184.36-0.09C1826.65,924.38,1826.75,928.72,1826.75,933.1z"/>
			<path class="st9" d="M1826.75,933.1c0,15.31-1.1,30.14-3.17,44.25l-178.56,0.08c-2.07-14.11-3.19-28.94-3.19-44.25
				c0-4.38,0.1-8.71,0.28-13.01l184.36-0.09C1826.65,924.38,1826.75,928.72,1826.75,933.1z"/>
		</g>
	</g>
	<ellipse class="st0" cx="887" cy="1720.5" rx="419.5" ry="164"/>
</g>
<g id="元素-待做事项">
	<path class="st10" d="M1247.64,899.93h-109.7c-1.99,0-3.6-1.61-3.6-3.6V756.11c0-1.99,1.61-3.6,3.6-3.6h109.7
		c1.99,0,3.6,1.61,3.6,3.6v140.22C1251.25,898.32,1249.63,899.93,1247.64,899.93z"/>
	<path class="st11" d="M1247.7,899.99H1138c-1.99,0-3.6-1.61-3.6-3.6V756.17c0-1.99,1.61-3.6,3.6-3.6h109.7c1.99,0,3.6,1.61,3.6,3.6
		v140.22C1251.31,898.38,1249.69,899.99,1247.7,899.99z"/>
	<path class="st1" d="M1240.77,891.82h-96.68c-1.77,0-3.2-1.43-3.2-3.2V762.86c0-1.77,1.43-3.2,3.2-3.2h96.68
		c1.77,0,3.2,1.43,3.2,3.2v125.76C1243.98,890.39,1242.54,891.82,1240.77,891.82z"/>
	<g>
		<path class="st1" d="M1223.02,763.38h-63.71c-0.69,0-1.25-0.56-1.25-1.25v-15.89c0-0.69,0.56-1.25,1.25-1.25h63.71
			c0.69,0,1.25,0.56,1.25,1.25v15.89C1224.27,762.82,1223.71,763.38,1223.02,763.38z"/>
		<path class="st12" d="M1223.02,763.38h-63.71c-0.69,0-1.25-0.56-1.25-1.25v-15.89c0-0.69,0.56-1.25,1.25-1.25h63.71
			c0.69,0,1.25,0.56,1.25,1.25v15.89C1224.27,762.82,1223.71,763.38,1223.02,763.38z"/>
	</g>
	<path class="st1" d="M1211.48,759.54h-35.81c-1.09,0-1.98-0.89-1.98-1.98v-1.33c0-1.09,0.89-1.98,1.98-1.98h35.81
		c1.09,0,1.98,0.89,1.98,1.98v1.33C1213.46,758.65,1212.57,759.54,1211.48,759.54z"/>
	<g>
		<g>
			<path class="st1" d="M1161.13,796.68h-13.33c-0.3,0-0.55-0.24-0.55-0.55V785.8c0-0.3,0.24-0.55,0.55-0.55h13.33
				c0.3,0,0.55,0.24,0.55,0.55v10.34C1161.67,796.44,1161.43,796.68,1161.13,796.68z"/>
			<path class="st13" d="M1161.11,796.69h-13.31c-0.3,0-0.55-0.24-0.55-0.55V785.8c0-0.3,0.24-0.55,0.55-0.55h13.31
				c0.3,0,0.55,0.24,0.55,0.55v10.34C1161.66,796.44,1161.42,796.69,1161.11,796.69z"/>
		</g>
		<g>
			<path class="st12" d="M1153.97,794.01l-0.64,0.64c-0.12,0.12-0.32,0.12-0.45,0l-2.64-2.64c-0.12-0.12-0.12-0.32,0-0.45l0.64-0.64
				c0.12-0.12,0.32-0.12,0.45,0l2.64,2.64C1154.1,793.68,1154.1,793.88,1153.97,794.01z"/>
			<path class="st12" d="M1152.94,794.35l-0.34-0.34c-0.21-0.21-0.21-0.54,0-0.75l5.85-5.85c0.21-0.21,0.54-0.21,0.75,0l0.34,0.34
				c0.21,0.21,0.21,0.54,0,0.75l-5.85,5.85C1153.48,794.56,1153.14,794.56,1152.94,794.35z"/>
		</g>
	</g>
	<g>
		<path class="st1" d="M1161.13,853.63h-13.33c-0.3,0-0.55-0.24-0.55-0.55v-10.34c0-0.3,0.24-0.55,0.55-0.55h13.33
			c0.3,0,0.55,0.24,0.55,0.55v10.34C1161.67,853.39,1161.43,853.63,1161.13,853.63z"/>
		<path class="st13" d="M1161.11,853.64h-13.31c-0.3,0-0.55-0.24-0.55-0.55v-10.34c0-0.3,0.24-0.55,0.55-0.55h13.31
			c0.3,0,0.55,0.24,0.55,0.55v10.34C1161.66,853.39,1161.42,853.64,1161.11,853.64z"/>
	</g>
	<g>
		<path class="st14" d="M1189.97,843.11h-19.26c-0.94,0-1.7-0.76-1.7-1.7v-2.54c0-0.94,0.76-1.7,1.7-1.7h19.26
			c0.94,0,1.7,0.76,1.7,1.7v2.54C1191.67,842.34,1190.91,843.11,1189.97,843.11z"/>
		<path class="st14" d="M1234.07,843.11h-35.43c-1.2,0-2.17-0.97-2.17-2.17v-1.61c0-1.2,0.97-2.17,2.17-2.17h35.43
			c1.2,0,2.17,0.97,2.17,2.17v1.61C1236.23,842.14,1235.26,843.11,1234.07,843.11z"/>
		<path class="st14" d="M1207.77,857.26h-36.56c-1.04,0-1.88-0.84-1.88-1.88v-2.19c0-1.04,0.84-1.88,1.88-1.88h36.56
			c1.04,0,1.88,0.84,1.88,1.88v2.19C1209.65,856.42,1208.81,857.26,1207.77,857.26z"/>
	</g>
	<g>
		<path class="st14" d="M1189.97,787.72h-19.26c-0.94,0-1.7-0.76-1.7-1.7v-2.54c0-0.94,0.76-1.7,1.7-1.7h19.26
			c0.94,0,1.7,0.76,1.7,1.7v2.54C1191.67,786.95,1190.91,787.72,1189.97,787.72z"/>
		<path class="st14" d="M1234.07,787.72h-35.43c-1.2,0-2.17-0.97-2.17-2.17v-1.61c0-1.2,0.97-2.17,2.17-2.17h35.43
			c1.2,0,2.17,0.97,2.17,2.17v1.61C1236.23,786.75,1235.26,787.72,1234.07,787.72z"/>
		<path class="st14" d="M1207.77,801.87h-36.56c-1.04,0-1.88-0.84-1.88-1.88v-2.19c0-1.04,0.84-1.88,1.88-1.88h36.56
			c1.04,0,1.88,0.84,1.88,1.88v2.19C1209.65,801.03,1208.81,801.87,1207.77,801.87z"/>
	</g>
</g>
<g id="元素-杯子">
	<g class="st15">
		<path id="XMLID_22_" class="st12" d="M1204.08,1124.74c-2.16,0.26-30.66,3.94-33.23,17.74c-2.21,11.89,15,30.49,45.05,41.76
			c-1.08-3.69-2.17-7.38-3.26-11.07c-20.65-7.31-32.63-19.75-31.24-27.82c1.66-9.64,22.3-12.33,23.4-12.47
			C1204.56,1130.17,1204.32,1127.46,1204.08,1124.74z"/>
		<path id="XMLID_21_" class="st12" d="M1287.31,1110.99c0.04,11.61-0.9,27.13-4.87,44.76c-3.44,15.28-8.18,27.73-12.44,37.08
			c-19.11,0-38.23,0-57.35,0c-3.83-9.5-7.84-21.52-10.82-35.8c-3.75-17.99-4.67-33.92-4.6-46.2
			C1227.25,1110.89,1257.28,1110.94,1287.31,1110.99z"/>
	</g>
	<g>
		<g id="XMLID_6_">
			<g id="XMLID_7_">
				<path id="XMLID_169_" class="st12" d="M1366.92,1126.66v-7.65c0-10.28,8.36-18.64,18.64-18.64h191.37
					c0.47,0,0.93,0.03,1.39,0.07l2.13,0.16v42.34l-0.15,2.16l-2.15,0.14c-0.41,0.03-0.81,0.05-1.22,0.05h-191.37
					C1375.28,1145.3,1366.92,1136.94,1366.92,1126.66z M1575.84,1104.97h-190.28c-7.74,0-14.04,6.3-14.04,14.04v7.65
					c0,7.74,6.3,14.03,14.04,14.03h190.28V1104.97z"/>
			</g>
		</g>
		<path id="XMLID_106_" class="st1" d="M1383.44,1139.34c66.68,0.03,133.37,0.07,200.05,0.09c0-11.05,0-22.11,0-33.17
			c-66.52-0.06-133.05-0.13-199.58-0.19c-1.76,0.47-6.67,2.07-9.42,6.71c-1.91,3.23-1.83,6.35-1.73,10.47
			c0.11,4.2,0.19,7.56,2.52,10.78C1377.83,1137.56,1381.6,1138.86,1383.44,1139.34z"/>
		<path id="XMLID_1_" class="st16" d="M1383.12,1139.34c66.68,0.03,133.37,0.07,200.05,0.09c0-11.05,0-22.11,0-33.17
			c-66.52-0.06-133.05-0.13-199.58-0.19c-1.76,0.47-6.67,2.07-9.42,6.71c-1.91,3.23-1.83,6.35-1.73,10.47
			c0.11,4.2,0.19,7.56,2.52,10.78C1377.51,1137.56,1381.29,1138.86,1383.12,1139.34z"/>
		<g id="XMLID_99_">
			<g id="XMLID_100_">
				<path id="XMLID_105_" class="st1" d="M1546.61,1147.42h-191.37c-0.41,0-0.81,0.03-1.22,0.06v40.2c0.41,0.03,0.81,0.06,1.22,0.06
					h191.37c8.99,0,16.34-7.35,16.34-16.34v-7.65C1562.96,1154.78,1555.6,1147.42,1546.61,1147.42z"/>
				<path id="XMLID_102_" class="st1" d="M1353.86,1189.99l-2.13-0.17v-42.34l0.15-2.16l2.15-0.14c0.4-0.03,0.81-0.06,1.22-0.06
					h191.37c10.28,0,18.64,8.37,18.64,18.64v7.65c0,10.28-8.36,18.64-18.64,18.64h-191.37
					C1354.78,1190.06,1354.32,1190.02,1353.86,1189.99z M1356.34,1149.73v35.72h190.28c7.74,0,14.04-6.3,14.04-14.03v-7.65
					c0-7.74-6.3-14.04-14.04-14.04H1356.34z"/>
			</g>
		</g>
		<path id="XMLID_98_" class="st12" d="M1548.69,1184.09c-66.98-0.03-133.96-0.06-200.94-0.09c-0.03-11-0.06-22-0.08-33
			c66.85-0.06,133.7-0.12,200.55-0.18c1.76,0.47,6.71,2.07,9.47,6.71c1.92,3.23,1.84,6.35,1.73,10.46c-0.1,4.2-0.19,7.56-2.52,10.78
			C1554.32,1182.31,1550.54,1183.61,1548.69,1184.09z"/>
	</g>
</g>
<g id="人物-迪恩">
	<g id="元素--椅子">
		<g>
			<g>
				<polygon id="XMLID_25_" class="st1" points="684.68,1381.07 684.68,1720.86 716.13,1720.86 716.13,1380.92 				"/>
				<path id="XMLID_24_" class="st1" d="M687.23,1690.83c-15.23,3.81-31.21,7.4-47.92,10.67c-29.28,5.71-57.06,9.68-82.98,12.37
					c0,2.98,0,5.97,0,8.95h159.48c0.23-10.52,0.47-21.04,0.71-31.56C706.76,1691.11,697,1690.97,687.23,1690.83z"/>
				<path id="XMLID_23_" class="st1" d="M716.69,1690.83c15.23,3.81,31.21,7.4,47.92,10.67c29.28,5.71,57.06,9.68,82.98,12.37
					c0,2.98,0,5.97,0,8.95H688.12c-0.24-10.52-0.48-21.04-0.71-31.56C697.17,1691.11,706.93,1690.97,716.69,1690.83z"/>
			</g>
			<g class="st17">
				<polygon id="XMLID_73_" class="st12" points="684.68,1381.07 684.68,1720.86 716.13,1720.86 716.13,1380.92 				"/>
				<path id="XMLID_72_" class="st12" d="M687.23,1690.83c-15.23,3.81-31.21,7.4-47.92,10.67c-29.28,5.71-57.06,9.68-82.98,12.37
					c0,2.98,0,5.97,0,8.95h159.48c0.23-10.52,0.47-21.04,0.71-31.56C706.76,1691.11,697,1690.97,687.23,1690.83z"/>
				<path id="XMLID_71_" class="st12" d="M716.69,1690.83c15.23,3.81,31.21,7.4,47.92,10.67c29.28,5.71,57.06,9.68,82.98,12.37
					c0,2.98,0,5.97,0,8.95H688.12c-0.24-10.52-0.48-21.04-0.71-31.56C697.17,1691.11,706.93,1690.97,716.69,1690.83z"/>
			</g>
		</g>
		<g>
			<path class="st1" d="M867.55,1455.45h-275.9c0,0-175.99-532.44-120.36-553.95c55.63-21.51,215.6,63.44,236.59,218.58
				s163.38,309.41,163.38,309.41L867.55,1455.45z"/>
			<path class="st18" d="M866.72,1454.58h-275.9c0,0-175.15-531.48-119.53-553.08c44.28-22.61,214.77,60.49,235.75,216.29
				s163.38,310.72,163.38,310.72L866.72,1454.58z"/>
		</g>
	</g>
	<g>
		<path d="M851.56,1587.9l18.79,25.45c0,0-8.57,33.23,36.75,72.2c0,0,12.03,38.71-55.46-19.06c-50.49-59.98-52.05-73.31-41.34-81.22
			C821.01,1577.35,832.01,1575.43,851.56,1587.9z"/>
		<path class="st19" d="M887.04,1583.66c-1.85,2.03-24.49,32.83-24.49,32.83l-14.17-25.58l28.63-34.39L887.04,1583.66z"/>
	</g>
	<path class="st1" d="M777.67,1283.14c5.09,5.57,14.95,11.54,34.02,14.66c41.67,6.82,187.11-1.52,203.78,22.73
		c16.67,24.24,24.24,33.33,16.67,46.21c-4.05,6.88-11.6,48.82-36.74,98.17c-35.11,45.33-83.96,97.91-107.51,122.72
		c-2.53,1.67-5.1,3.33-7.72,4.95l-21.5-12.97c0,0,57.57-165.9,103.03-208.33c0,0-124.24,5.3-128.78,3.79
		c-4.55-1.52-74.24-34.09-74.24-34.09l-18.52-27.42h37.52V1283.14z"/>
	<path class="st20" d="M777.67,1282.38c5.09,5.57,14.95,11.54,34.02,14.66c41.67,6.82,187.11-1.52,203.78,22.73
		c16.67,24.24,24.24,33.33,16.67,46.21c-4.05,6.88-11.6,48.82-36.74,98.17c-35.11,45.33-83.96,97.91-107.51,122.72
		c-2.53,1.67-5.1,3.33-7.72,4.95l-21.5-12.97c0,0,57.57-165.9,103.03-208.33c0,0-124.24,5.3-128.78,3.79
		c-4.55-1.52-74.24-34.09-74.24-34.09l-18.52-27.42h37.52V1282.38z"/>
	<g>
		<path d="M1068.21,1719.33l31.63,0.32c0,0,21.37,26.85,79.77,14.13c0,0,38.15,13.7-48.61,32.81c-78.29,4.2-89.88-2.57-89.74-15.89
			S1046.49,1727.44,1068.21,1719.33z"/>
		<polygon class="st19" points="1094.25,1692.23 1095.29,1723.46 1071.99,1723.07 1060.78,1678.79 1095.12,1679.24 		"/>
	</g>
	<path class="st12" d="M563.28,1318.1c0-3.03-17.42,98.48,42.42,112.87c59.85,14.39,388.62,5.3,388.62,5.3
		s11.06,128.18,65.76,256.13l37.73-6.03c0,0-6.53-310.7-45.16-331.16c-38.63-20.45-54.54-22.73-54.54-22.73l-226.51-28.03l3.79-30.3
		L563.28,1318.1z"/>
	<path class="st12" d="M860.24,1322.65c0,0-85.6-15.15-82.57-48.48l-108.13,39.39c0,0,46.76,34.85,53.58,34.09
		c6.82-0.76,109.84,4.55,113.63,3.79C840.54,1350.68,860.24,1322.65,860.24,1322.65z"/>
	<path class="st12" d="M825.66,1585.28"/>
	<path d="M812.19,1058.22c1.49,2.87-45.56,58.11-45.56,58.11l-15.37-20.41l-45.83-143.1l8.06-16.82
		C713.49,936,761,959.33,812.19,1058.22z"/>
	<path class="st19" d="M697.55,847.27l-27.99,37.96l6.24,33.18c0,0,43.54,97.37,42.03,60.52s17.84-50.27,28.88-62.15L697.55,847.27z
		"/>
	<path class="st19" d="M751.56,788c-23.53-0.72-32.25,34.39-32.25,34.39c-5.08-23.71-20.83,0.94-25.98,16.02
		c-5.15,15.08,10.33,25.5,13.61,26.62c-8.79,62.17,33.61,77.4,57.22,85.46c70.58-28.63,61.4-91.82,42-135.8
		C806.15,814.69,798.67,789.43,751.56,788z"/>
	<path d="M762.24,791.34c-36.82-10.23-38.65,42.02-38.65,42.02s6-9.69-16.02-5.63c-22.02,4.06-8.64,29.58-8.64,29.58
		s-46.33,43.51-71.04,15.21c-24.71-28.3,29.55-62.64,46.57-94.56c17.02-31.92,70.85-43.02,120.58-19.6
		c49.73,23.42,54.04,65.29,11.37,59.54C806.4,817.89,799.08,801.57,762.24,791.34z"/>
	<g class="st21">
		<g>
			<path class="st22" d="M796.52,849.62c0.32-5.65-8.47-6.19-8.79-0.53c-0.55,9.79-0.13,19.56,1.25,29.26
				c0.8,5.61,9.42,3.84,8.63-1.75C796.33,867.64,796.01,858.66,796.52,849.62L796.52,849.62z"/>
		</g>
	</g>
	<g id="圆角矩形_1_1_">
		<g>
			<path class="st23" d="M759.58,837.77l20.53,7.01c1.28,0.44,1.92,2,1.42,3.46l-4.71,13.79c-0.5,1.47-1.96,2.31-3.24,1.87
				l-20.53-7.01c-1.28-0.44-1.92-2-1.42-3.46l4.71-13.79C756.84,838.16,758.3,837.33,759.58,837.77 M761.29,832.77
				c-4.05-1.38-8.5,0.93-9.95,5.16l-4.71,13.79c-1.45,4.23,0.66,8.79,4.71,10.17l20.53,7.01c4.05,1.38,8.5-0.93,9.95-5.16
				l4.71-13.79c1.45-4.23-0.66-8.79-4.71-10.17L761.29,832.77L761.29,832.77z"/>
		</g>
	</g>
	<g id="圆角矩形_1_拷贝_1_">
		<g>
			<path class="st23" d="M808.19,854.66l18.64,6.37c0.92,0.31,1.39,1.34,1.07,2.3l-4.14,12.11c-0.33,0.96-1.33,1.48-2.25,1.17
				l-18.64-6.37c-0.92-0.31-1.39-1.34-1.07-2.3l4.14-12.11C806.27,854.87,807.28,854.35,808.19,854.66 M809.9,849.66
				c-3.67-1.26-7.69,0.74-8.96,4.46l-4.14,12.11c-1.27,3.72,0.68,7.75,4.36,9.01l18.64,6.37c3.67,1.26,7.69-0.74,8.96-4.46
				l4.14-12.11c1.27-3.72-0.68-7.75-4.36-9.01L809.9,849.66L809.9,849.66z"/>
		</g>
	</g>
	<g>
		<g>
			<path class="st23" d="M785.4,848.35c-0.72-0.15-1.33-0.17-2.02,0.13c-0.65,0.28-1.09,0.87-1.34,1.52
				c-0.24,0.62-0.16,1.44,0.13,2.02c0.26,0.54,0.9,1.21,1.52,1.34c2.95,0.62,5.84,1.5,8.63,2.64c0.71,0.29,1.41,0.59,2.1,0.91
				c0.31,0.14,0.78,0.28,1.03,0.49c-0.09-0.04-0.17-0.09-0.26-0.13c0.09,0.05,0.18,0.09,0.28,0.14c0.15,0.08,0.31,0.16,0.46,0.24
				c1.33,0.71,2.63,1.47,3.9,2.29c1.24,0.81,2.8,0.46,3.67-0.7c0.84-1.13,0.46-2.92-0.7-3.67
				C797.5,852.13,791.57,849.65,785.4,848.35L785.4,848.35z"/>
		</g>
	</g>
	<g>
		<g>
			<path class="st23" d="M720.86,822.68c-1.4-0.47-2.83,0.31-3.35,1.65c-0.52,1.32,0.33,2.92,1.65,3.35
				c2.57,0.87,5.1,1.83,7.58,2.92c1.04,0.46,2.06,0.93,3.08,1.42c0.17,0.08,0.35,0.2,0.53,0.27c-0.55-0.2-0.25-0.13-0.1-0.05
				c0.24,0.12,0.47,0.24,0.7,0.36c0.52,0.27,1.04,0.55,1.56,0.83c1.98,1.08,3.92,2.23,5.8,3.48c1.83,1.21,3.61,2.5,5.32,3.87
				c0.81,0.65,1.61,1.32,2.39,2.01c0.45,0.38-0.36-0.33,0.04,0.03c0.09,0.08,0.18,0.16,0.27,0.24c0.2,0.19,0.4,0.37,0.6,0.56
				c0.38,0.34,0.75,0.7,1.11,1.06c1.05,1.03,2.52,1.22,3.72,0.27c1.05-0.83,1.26-2.75,0.27-3.72c-1.87-1.84-3.86-3.59-5.93-5.22
				C738.58,830.11,729.89,825.71,720.86,822.68L720.86,822.68z"/>
		</g>
	</g>
	<g>
		
			<ellipse transform="matrix(0.3233 -0.9463 0.9463 0.3233 -279.7071 1308.576)" class="st23" cx="775.09" cy="849.86" rx="6.59" ry="4.16"/>
		
			<ellipse transform="matrix(0.3233 -0.9463 0.9463 0.3233 -280.3995 1310.4736)" class="st1" cx="776.07" cy="851.29" rx="2.08" ry="1.38"/>
	</g>
	<g>
		
			<ellipse transform="matrix(0.3233 -0.9463 0.9463 0.3233 -268.8098 1353.2922)" class="st23" cx="811.81" cy="864.6" rx="6.59" ry="4.16"/>
		
			<ellipse transform="matrix(0.3233 -0.9463 0.9463 0.3233 -269.5022 1355.1897)" class="st1" cx="812.79" cy="866.03" rx="2.08" ry="1.38"/>
	</g>
	<path d="M803.94,789.04c-3.05-1.78-6.52-6.63-10.03-7.09s-18.35-8.46-20.32-9.14c-1.97-0.67-10.75,1.45-13.39,2.75
		c-2.64,1.3-20.17,1.17-21.71,1.38c-1.54,0.21-29.33,23.67-29.33,23.67l-2.57,20.37l18.17,2.55c30.58-44.48,64.93-7.86,73.25-6.48
		c8.32,1.37,10.06,2.7,11.65-4.08C809.68,812.96,806.99,790.81,803.94,789.04z"/>
	<g>
		<g>
			<path class="st22" d="M803.32,902.84c4.97-2.7,1.11-10.62-3.88-7.9c-12.7,6.92-24.68-3.69-31.43-13.77
				c-3.15-4.72-9.78,1.11-6.66,5.75C770.35,900.39,787.15,911.65,803.32,902.84L803.32,902.84z"/>
		</g>
	</g>
	<g>
		<g>
			<path d="M782.89,833.08c2.73,2.87,7.4-1.16,4.66-4.03c-9.69-10.19-24.03-14.57-37.75-11.28c-3.85,0.92-2.65,6.97,1.22,6.04
				C762.57,821.05,774.67,824.46,782.89,833.08L782.89,833.08z"/>
		</g>
	</g>
	<g>
		<g>
			<path d="M825.41,845.9c3.57,1.73,5.51-4.13,2-5.83c-7.48-3.62-15.96-2.58-22.74,2c-3.3,2.21,0.78,6.85,4.03,4.66
				C813.76,843.31,820.03,843.3,825.41,845.9L825.41,845.9z"/>
		</g>
	</g>
	<g>
		<path class="st1" d="M919.22,1102.96c0,0-90.01-16.87-106.95-43.06c0,0-46.06,41.39-40.84,48.76c5.22,7.36,50.76,39.2,59.39,38.76
			c8.63-0.44,110.67-19.93,113.33-20.76s27.05-17.68,27.05-17.68l-20.45-7.98L919.22,1102.96z"/>
		<path class="st24" d="M919.22,1102.96c0,0-90.01-16.87-106.95-43.06c0,0-46.06,41.39-40.84,48.76
			c5.22,7.36,50.76,39.2,59.39,38.76c8.63-0.44,110.67-19.93,113.33-20.76s27.05-17.68,27.05-17.68l-20.45-7.98L919.22,1102.96z"/>
	</g>
	<path class="st25" d="M815.48,1059.71c0,0-29.97,18.99-40.34,51.11l-15.27-9.74c0,0,24.3-52.56,45.25-56.07
		C817.63,1048.62,815.48,1059.71,815.48,1059.71z"/>
	<path d="M722.94,962.15c20.75,9.2,74.4,46.02,41.64,158.38s18.32,160.14,18.32,160.14s-111.47,35.83-235.32-3.21
		c0,0-53.56-142.14-5.83-259.22c42.03-103.09,85.56-133.79,109.85-133.14c24.29,0.65,71.95,61.86,71.95,61.86l0.24,12.25
		L722.94,962.15z"/>
	<polygon class="st25" points="648.96,884.63 731.74,960.73 729.95,934.06 671.81,875.86 	"/>
	<path class="st26" d="M772.02,983.2c-98.45-24.85-47.77-151.72-47.77-151.72c-16.23,86.1,59.59,110.35,78.24,92.55
		C802.49,924.03,810.12,987.43,772.02,983.2z"/>
	<g>
		<path class="st1" d="M1106.08,1066.82c12.48,3.97,23.68,3.85,20.23,7.18c-3.46,3.33-200.86,120.02-203.42,111.83
			c-2.56-8.19,0.91-29.51,0.91-29.51L1106.08,1066.82z"/>
		<path class="st27" d="M1106.08,1066.82c12.48,3.97,23.68,3.85,20.23,7.18c-3.46,3.33-200.86,120.02-203.42,111.83
			c-2.56-8.19,0.91-29.51,0.91-29.51L1106.08,1066.82z"/>
	</g>
	<g>
		
			<rect x="910.18" y="1128.87" transform="matrix(-0.8775 0.4796 -0.4796 -0.8775 2471.314 1636.0712)" class="st1" width="233" height="9.66"/>
		
			<rect x="909.88" y="1128.8" transform="matrix(-0.8775 0.4796 -0.4796 -0.8775 2470.7029 1636.0825)" class="st28" width="233" height="9.66"/>
	</g>
	<path class="st12" d="M882.58,1085.1l39.92,75.76c0.61,1.16,4.84,0.14,9.45-2.28l166.23-87.59c4.6-2.43,7.84-5.34,7.23-6.5
		l-39.92-75.76c-0.61-1.16-4.84-0.14-9.45,2.28L889.8,1078.6C885.2,1081.03,881.96,1083.94,882.58,1085.1"/>
	<path class="st1" d="M888.53,1085.19l37.25,70.7c0.92,1.75,7.26,0.21,14.17-3.43l148.56-78.28c6.91-3.64,11.76-8,10.84-9.75
		l-37.25-70.7c-0.92-1.75-7.26-0.21-14.17,3.43l-148.56,78.28C892.46,1079.08,887.61,1083.45,888.53,1085.19"/>
	<path class="st29" d="M888.47,1085.22l37.25,70.7c0.92,1.75,7.26,0.21,14.17-3.43l148.56-78.28c6.91-3.64,11.76-8,10.84-9.75
		l-37.25-70.7c-0.92-1.75-7.26-0.21-14.17,3.43l-148.56,78.28C892.41,1079.11,887.55,1083.48,888.47,1085.22"/>
	
		<rect x="908.57" y="1054.6" transform="matrix(0.8847 -0.4662 0.4662 0.8847 -398.1303 573.2029)" class="st1" width="102.26" height="73.69"/>
	
		<rect x="1005.81" y="1011.25" transform="matrix(0.8847 -0.4662 0.4662 0.8847 -368.4274 606.5934)" class="st1" width="72.48" height="73.7"/>
	<g>
		<g>
			<path class="st1" d="M960.67,1069.41l-3.16-5.94c-0.11-0.21-0.03-0.48,0.18-0.59l9.47-5.04c0.21-0.11,0.48-0.03,0.59,0.18
				l3.16,5.94c0.11,0.21,0.03,0.48-0.18,0.59l-9.47,5.04C961.05,1069.7,960.78,1069.62,960.67,1069.41z"/>
			<path class="st13" d="M960.66,1069.4l-3.16-5.93c-0.11-0.21-0.03-0.48,0.18-0.59l9.47-5.04c0.21-0.11,0.48-0.03,0.59,0.18
				l3.16,5.93c0.11,0.21,0.03,0.48-0.18,0.59l-9.47,5.04C961.04,1069.7,960.78,1069.62,960.66,1069.4z"/>
		</g>
		<g>
			<path class="st14" d="M977.09,1077.53l-4.33-8.14c-0.35-0.66-0.1-1.49,0.56-1.84l2.92-1.55c0.66-0.35,1.49-0.1,1.84,0.56
				l4.33,8.14c0.35,0.67,0.1,1.49-0.56,1.84l-2.92,1.55C978.27,1078.44,977.44,1078.19,977.09,1077.53z"/>
			<path class="st14" d="M987.95,1097.93l-8.22-15.44c-0.45-0.85-0.13-1.9,0.72-2.35l2.26-1.2c0.85-0.45,1.9-0.13,2.35,0.72
				l8.22,15.44c0.45,0.85,0.13,1.9-0.72,2.35l-2.26,1.2C989.45,1099.1,988.4,1098.78,987.95,1097.93z"/>
			<path class="st14" d="M968.8,1092.51l-8.57-16.1c-0.39-0.73-0.11-1.65,0.62-2.04l2.67-1.42c0.73-0.39,1.65-0.11,2.04,0.62
				l8.57,16.1c0.39,0.73,0.11,1.65-0.62,2.04l-2.67,1.42C970.1,1093.53,969.19,1093.25,968.8,1092.51z"/>
		</g>
	</g>
	<g>
		<g>
			
				<rect x="940.57" y="1047.57" transform="matrix(-0.5721 0.8202 -0.8202 -0.5721 2368.9954 918.7824)" class="st1" width="8.54" height="59.49"/>
			<polygon class="st1" points="971.68,1090.83 966.79,1097.84 974.05,1099.43 974.05,1099.43 			"/>
		</g>
		<g class="st30">
			
				<rect x="940.57" y="1047.57" transform="matrix(-0.5721 0.8202 -0.8202 -0.5721 2368.9954 918.7824)" class="st12" width="8.54" height="59.49"/>
			<polygon class="st12" points="971.68,1090.83 966.79,1097.84 974.05,1099.43 974.05,1099.43 			"/>
		</g>
	</g>
	<path class="st19" d="M722.67,1061.83c0.81-1.38-95,45-67,86c23.08,33.8,69,91,100.6,84.85c24.27-1.95,184.49-74.44,184.49-74.44
		s55.98-3.98,79.05-33.67c9.1-10.71-14.39-2.25-14.39-2.25s21.04-4.32,12.67-15.2s-15.2-0.88-15.2-0.88s21.04-4.32,11.54-14.84
		c-12.61-0.56-12.61-0.56-12.61-0.56s19.59-4.99,3.28-13.39s-56.96,8.79-75.33,33.63c-18.37,24.84-165.57,31.44-165.57,31.44
		L722.67,1061.83z"/>
	<g>
		<g>
			
				<ellipse transform="matrix(0.7116 -0.7026 0.7026 0.7116 -503.0142 1048.1031)" class="st1" cx="1025.24" cy="1136.8" rx="7.92" ry="17.35"/>
			
				<ellipse transform="matrix(0.2193 -0.9757 0.9757 0.2193 -333.6112 1875.4828)" class="st1" cx="1005.08" cy="1146.2" rx="8.19" ry="19.04"/>
			
				<ellipse transform="matrix(0.2193 -0.9757 0.9757 0.2193 -355.4916 1870.0597)" class="st1" cx="990.75" cy="1157.16" rx="6.93" ry="17.35"/>
			
				<ellipse transform="matrix(0.2767 -0.9609 0.9609 0.2767 -324.0779 1816.028)" class="st1" cx="1044.38" cy="1123.31" rx="27.52" ry="10.86"/>
			
				<ellipse transform="matrix(0.914 -0.4057 0.4057 0.914 -379.3228 513.5653)" class="st1" cx="1021.81" cy="1151.58" rx="26.29" ry="7.51"/>
		</g>
		<g class="st31">
			
				<ellipse transform="matrix(0.7116 -0.7026 0.7026 0.7116 -503.0142 1048.1031)" class="st22" cx="1025.24" cy="1136.8" rx="7.92" ry="17.35"/>
			
				<ellipse transform="matrix(0.2193 -0.9757 0.9757 0.2193 -333.6112 1875.4828)" class="st22" cx="1005.08" cy="1146.2" rx="8.19" ry="19.04"/>
			
				<ellipse transform="matrix(0.2193 -0.9757 0.9757 0.2193 -355.4916 1870.0597)" class="st22" cx="990.75" cy="1157.16" rx="6.93" ry="17.35"/>
			
				<ellipse transform="matrix(0.2767 -0.9609 0.9609 0.2767 -324.0779 1816.028)" class="st22" cx="1044.38" cy="1123.31" rx="27.52" ry="10.86"/>
			
				<ellipse transform="matrix(0.914 -0.4057 0.4057 0.914 -379.3228 513.5653)" class="st22" cx="1021.81" cy="1151.58" rx="26.29" ry="7.51"/>
		</g>
	</g>
	<path class="st25" d="M735.37,1081.72c0,0-56.67,17.29-84.66,59.21l-15.48-19.06c0,0,48.86-59.11,93.57-62.16L735.37,1081.72z"/>
	<g>
		<g>
			<path class="st1" d="M1033.78,1033.78l-4.72-7.46c-0.11-0.17-0.06-0.39,0.1-0.5l5.64-3.76c0.16-0.11,0.38-0.06,0.49,0.11
				l4.72,7.46c0.11,0.17,0.06,0.39-0.1,0.5l-5.64,3.76C1034.11,1034,1033.89,1033.95,1033.78,1033.78z"/>
			<path class="st13" d="M1033.78,1033.78l-4.72-7.45c-0.11-0.17-0.06-0.39,0.1-0.5l5.64-3.76c0.16-0.11,0.38-0.06,0.49,0.11
				l4.72,7.45c0.11,0.17,0.06,0.39-0.1,0.5l-5.64,3.76C1034.1,1033.99,1033.88,1033.95,1033.78,1033.78z"/>
		</g>
		<g>
			<path class="st12" d="M1032.71,1028.81l-0.58-0.13c-0.11-0.02-0.18-0.14-0.16-0.25l0.5-2.44c0.02-0.11,0.13-0.19,0.24-0.16
				l0.58,0.13c0.11,0.02,0.18,0.14,0.16,0.25l-0.5,2.44C1032.93,1028.76,1032.82,1028.83,1032.71,1028.81z"/>
			<path class="st12" d="M1032.15,1028.35l0.07-0.32c0.04-0.19,0.22-0.31,0.41-0.27l5.26,1.14c0.19,0.04,0.3,0.23,0.26,0.42
				l-0.07,0.32c-0.04,0.19-0.22,0.31-0.41,0.27l-5.26-1.14C1032.23,1028.73,1032.11,1028.54,1032.15,1028.35z"/>
		</g>
	</g>
	<g>
		<path class="st14" d="M1048.89,1046.66l-6.83-10.78c-0.33-0.53-0.19-1.23,0.32-1.57l1.39-0.93c0.51-0.34,1.2-0.19,1.53,0.33
			l6.83,10.78c0.33,0.53,0.19,1.23-0.32,1.57l-1.39,0.93C1049.91,1047.34,1049.23,1047.19,1048.89,1046.66z"/>
		<path class="st14" d="M1064.53,1071.34l-12.56-19.83c-0.42-0.67-0.24-1.57,0.41-2l0.88-0.59c0.65-0.44,1.53-0.25,1.95,0.42
			l12.56,19.83c0.42,0.67,0.24,1.57-0.41,2l-0.88,0.59C1065.83,1072.2,1064.95,1072.01,1064.53,1071.34z"/>
		<path class="st14" d="M1047.49,1061.77l-12.96-20.46c-0.37-0.58-0.21-1.36,0.36-1.74l1.19-0.8c0.57-0.38,1.32-0.21,1.69,0.37
			l12.96,20.46c0.37,0.58,0.21,1.36-0.36,1.74l-1.19,0.8C1048.61,1062.52,1047.85,1062.36,1047.49,1061.77z"/>
	</g>
</g>
<g id="元素-时钟">
	<path class="st1" d="M1747.59,179.51c0,33.91-27.49,61.39-61.39,61.39c-33.91,0-61.4-27.49-61.4-61.39
		c0-33.91,27.49-61.39,61.4-61.39C1720.1,118.12,1747.59,145.6,1747.59,179.51"/>
	<path class="st12" d="M1686.2,245.3c-36.28,0-65.8-29.51-65.8-65.79c0-36.28,29.52-65.79,65.8-65.79
		c36.28,0,65.79,29.51,65.79,65.79C1751.99,215.79,1722.48,245.3,1686.2,245.3 M1686.2,122.51c-31.43,0-57,25.57-57,57
		c0,31.43,25.57,56.99,57,56.99c31.43,0,57-25.57,57-56.99C1743.19,148.08,1717.63,122.51,1686.2,122.51"/>
	<path d="M1687,180.62l-1.22-0.33c-1.29-0.35-2.05-1.7-1.69-2.98l10.66-38.8c0.36-1.28,1.7-2.04,2.98-1.7l1.22,0.34
		c1.28,0.35,2.05,1.69,1.69,2.98l-10.67,38.8C1689.62,180.21,1688.28,180.97,1687,180.62"/>
	<path d="M1688.43,178.7l-0.9-0.9c-0.94-0.94-2.48-0.94-3.43,0L1664,197.91c-0.94,0.94-0.94,2.49,0,3.42l0.89,0.9
		c0.94,0.94,2.49,0.94,3.43,0l20.11-20.11C1689.37,181.18,1689.37,179.64,1688.43,178.7"/>
	<path d="M1692.65,179.67c0,3.61-2.93,6.55-6.55,6.55c-3.61,0-6.55-2.93-6.55-6.55c0-3.61,2.93-6.54,6.55-6.54
		C1689.72,173.12,1692.65,176.05,1692.65,179.67"/>
</g>
<g id="元素-桌子">
	<g>
		<path class="st1" d="M816.71,1456.4H534.91c0,0-128.03-532.55-71.21-554.52c56.82-21.97,168.49,53.52,189.92,211.98
			c21.43,158.46,166.88,316.03,166.88,316.03L816.71,1456.4z"/>
		<path class="st32" d="M816.71,1456.48H534.91c0,0-128.03-532.55-71.21-554.52c56.82-21.97,168.49,53.52,189.92,211.98
			c21.43,158.46,166.88,316.03,166.88,316.03L816.71,1456.48z"/>
	</g>
	<g id="元素--桌子_1_">
		<path class="st12" d="M1851.38,1245.28H136.96c-2.36,0-4.29-1.57-4.29-3.49v-46.33c0-1.92,1.93-3.49,4.29-3.49h1714.42
			c2.36,0,4.29,1.57,4.29,3.49v46.33C1855.67,1243.72,1853.74,1245.28,1851.38,1245.28"/>
		<rect x="294.8" y="1244.11" class="st1" width="45.98" height="504.65"/>
		<rect x="297.43" y="1244.11" class="st16" width="45.98" height="504.65"/>
		<rect x="1690.44" y="1244.11" class="st1" width="45.98" height="504.65"/>
		<rect x="1693.06" y="1244.11" class="st16" width="45.98" height="504.65"/>
	</g>
</g>
</svg>
